<svg xmlns="http://www.w3.org/2000/svg" viewBox="0 0 560 420" role="img" aria-label="Пример поля крестики-нолики до 5">
  <defs>
    <linearGradient id="bg" x1="0" y1="0" x2="1" y2="1">
      <stop offset="0%" stop-color="#f9fbff"/>
      <stop offset="100%" stop-color="#e8eef9"/>
    </linearGradient>
  </defs>
  <rect x="0" y="0" width="560" height="420" rx="18" fill="url(#bg)"/>
  <rect x="20" y="20" width="520" height="50" rx="12" fill="#1f2a44"/>
  <text x="40" y="52" fill="#f7fbff" font-size="18" font-family="Verdana, sans-serif">Крестики-нолики до 5</text>
  <text x="395" y="52" fill="#b9c9ea" font-size="14" font-family="Verdana, sans-serif">Ход: player_o</text>

  <g transform="translate(60,95)">
    <rect x="0" y="0" width="300" height="300" rx="10" fill="#ffffff" stroke="#b5c5de" stroke-width="2"/>
    <g stroke="#a8b8d4" stroke-width="1.5">
      <line x1="60" y1="0" x2="60" y2="300"/>
      <line x1="120" y1="0" x2="120" y2="300"/>
      <line x1="180" y1="0" x2="180" y2="300"/>
      <line x1="240" y1="0" x2="240" y2="300"/>
      <line x1="0" y1="60" x2="300" y2="60"/>
      <line x1="0" y1="120" x2="300" y2="120"/>
      <line x1="0" y1="180" x2="300" y2="180"/>
      <line x1="0" y1="240" x2="300" y2="240"/>
    </g>

    <g stroke="#de5d4f" stroke-width="6" stroke-linecap="round">
      <line x1="16" y1="16" x2="44" y2="44"/>
      <line x1="44" y1="16" x2="16" y2="44"/>
      <line x1="136" y1="16" x2="164" y2="44"/>
      <line x1="164" y1="16" x2="136" y2="44"/>
      <line x1="76" y1="76" x2="104" y2="104"/>
      <line x1="104" y1="76" x2="76" y2="104"/>
      <line x1="196" y1="136" x2="224" y2="164"/>
      <line x1="224" y1="136" x2="196" y2="164"/>
    </g>

    <g fill="none" stroke="#2f6ed8" stroke-width="6">
      <circle cx="210" cy="30" r="14"/>
      <circle cx="90" cy="30" r="14"/>
      <circle cx="30" cy="90" r="14"/>
      <circle cx="150" cy="90" r="14"/>
      <circle cx="270" cy="150" r="14"/>
    </g>
  </g>

  <g transform="translate(390,98)">
    <rect x="0" y="0" width="130" height="82" rx="10" fill="#ffffff" stroke="#c0cde3"/>
    <text x="14" y="26" fill="#223250" font-size="13" font-family="Verdana, sans-serif">Режим: small_match</text>
    <text x="14" y="47" fill="#223250" font-size="13" font-family="Verdana, sans-serif">Размер поля: 5x5</text>
    <text x="14" y="68" fill="#223250" font-size="13" font-family="Verdana, sans-serif">Win length: 5</text>

    <rect x="0" y="96" width="130" height="120" rx="10" fill="#ffffff" stroke="#c0cde3"/>
    <text x="14" y="122" fill="#223250" font-size="13" font-family="Verdana, sans-serif">Счёт матча</text>
    <text x="14" y="148" fill="#de5d4f" font-size="14" font-family="Verdana, sans-serif">team_red: 0</text>
    <text x="14" y="172" fill="#2f6ed8" font-size="14" font-family="Verdana, sans-serif">team_blue: 0</text>
    <text x="14" y="196" fill="#516688" font-size="13" font-family="Verdana, sans-serif">Статус: in_progress</text>
  </g>
</svg>
