<svg xmlns="http://www.w3.org/2000/svg" viewBox="0 0 900 520" role="img" aria-label="Танковый CTF матч">
  <defs>
    <linearGradient id="arenaBg" x1="0" y1="0" x2="1" y2="1">
      <stop offset="0%" stop-color="#15243b"/>
      <stop offset="100%" stop-color="#0b121f"/>
    </linearGradient>
    <pattern id="grid" width="28" height="28" patternUnits="userSpaceOnUse">
      <path d="M 28 0 L 0 0 0 28" fill="none" stroke="#1d2d46" stroke-width="1"/>
    </pattern>
  </defs>

  <rect x="0" y="0" width="900" height="520" rx="18" fill="url(#arenaBg)"/>
  <rect x="26" y="26" width="848" height="66" rx="12" fill="#192c49"/>
  <text x="52" y="66" fill="#ecf4ff" font-size="24" font-family="Verdana, sans-serif">Танки CTF · Massive Lobby</text>
  <text x="654" y="66" fill="#b8c8e5" font-size="16" font-family="Verdana, sans-serif">Tick 48 / 80</text>

  <g transform="translate(36,108)">
    <rect x="0" y="0" width="620" height="372" rx="12" fill="#111d31" stroke="#2d4366" stroke-width="2"/>
    <rect x="10" y="10" width="600" height="352" rx="10" fill="#12243f"/>
    <rect x="10" y="10" width="600" height="352" fill="url(#grid)" opacity="0.8"/>

    <rect x="14" y="146" width="80" height="80" rx="8" fill="#294a78" opacity="0.55"/>
    <text x="22" y="192" fill="#d6e6ff" font-size="13" font-family="Verdana, sans-serif">BASE A</text>
    <rect x="526" y="146" width="80" height="80" rx="8" fill="#76413a" opacity="0.55"/>
    <text x="534" y="192" fill="#ffe1dd" font-size="13" font-family="Verdana, sans-serif">BASE B</text>

    <g fill="#2a3a57">
      <rect x="198" y="72" width="36" height="36" rx="6"/>
      <rect x="270" y="72" width="36" height="36" rx="6"/>
      <rect x="342" y="72" width="36" height="36" rx="6"/>
      <rect x="198" y="264" width="36" height="36" rx="6"/>
      <rect x="270" y="264" width="36" height="36" rx="6"/>
      <rect x="342" y="264" width="36" height="36" rx="6"/>
    </g>

    <g transform="translate(298,176)">
      <circle cx="12" cy="12" r="12" fill="#f0c94f"/>
      <path d="M12 2 L16 10 H8 Z" fill="#7a4b00"/>
    </g>

    <g transform="translate(108,170)">
      <rect x="0" y="0" width="28" height="18" rx="4" fill="#5aa4ff"/>
      <rect x="22" y="6" width="12" height="6" rx="2" fill="#9dc7ff"/>
      <circle cx="7" cy="21" r="3" fill="#0d1a2b"/>
      <circle cx="20" cy="21" r="3" fill="#0d1a2b"/>
    </g>
    <g transform="translate(154,220)">
      <rect x="0" y="0" width="28" height="18" rx="4" fill="#71b7ff"/>
      <rect x="22" y="6" width="12" height="6" rx="2" fill="#b4d6ff"/>
      <circle cx="7" cy="21" r="3" fill="#0d1a2b"/>
      <circle cx="20" cy="21" r="3" fill="#0d1a2b"/>
    </g>

    <g transform="translate(490,154)">
      <rect x="0" y="0" width="28" height="18" rx="4" fill="#ff7565"/>
      <rect x="-6" y="6" width="12" height="6" rx="2" fill="#ffb0a7"/>
      <circle cx="7" cy="21" r="3" fill="#2a0f0d"/>
      <circle cx="20" cy="21" r="3" fill="#2a0f0d"/>
    </g>
    <g transform="translate(456,240)">
      <rect x="0" y="0" width="28" height="18" rx="4" fill="#f09184"/>
      <rect x="-6" y="6" width="12" height="6" rx="2" fill="#ffd0c9"/>
      <circle cx="7" cy="21" r="3" fill="#2a0f0d"/>
      <circle cx="20" cy="21" r="3" fill="#2a0f0d"/>
    </g>
  </g>

  <g transform="translate(680,116)">
    <rect x="0" y="0" width="190" height="170" rx="12" fill="#1b2f4c" stroke="#355179"/>
    <text x="18" y="30" fill="#edf4ff" font-size="16" font-family="Verdana, sans-serif">Команды</text>
    <text x="18" y="56" fill="#87c0ff" font-size="14" font-family="Verdana, sans-serif">Blue squad · score 1</text>
    <text x="18" y="80" fill="#ff9f95" font-size="14" font-family="Verdana, sans-serif">Red squad · score 1</text>
    <text x="18" y="104" fill="#b8c8e5" font-size="13" font-family="Verdana, sans-serif">Активных команд: 6</text>
    <text x="18" y="128" fill="#b8c8e5" font-size="13" font-family="Verdana, sans-serif">Флаг: нейтральный</text>
    <text x="18" y="152" fill="#b8c8e5" font-size="13" font-family="Verdana, sans-serif">Режим: training</text>

    <rect x="0" y="188" width="190" height="126" rx="12" fill="#1b2f4c" stroke="#355179"/>
    <text x="18" y="218" fill="#edf4ff" font-size="16" font-family="Verdana, sans-serif">Лог событий</text>
    <text x="18" y="242" fill="#c8d8f1" font-size="13" font-family="Verdana, sans-serif">• Team A picked flag</text>
    <text x="18" y="264" fill="#c8d8f1" font-size="13" font-family="Verdana, sans-serif">• Team B intercepted</text>
    <text x="18" y="286" fill="#c8d8f1" font-size="13" font-family="Verdana, sans-serif">• Timeout tick 48</text>
  </g>
</svg>
